# This file uses centimeters as units for non-parametric coordinates.

v -2.491127 0.000000 0.794810
v 2.485283 0.000000 0.794810
v -3.329563 4.307508 0.794810
v 3.323719 4.307508 0.794810
v -3.329563 4.307508 0.054116
v 3.323719 4.307508 0.054116
v -2.491127 0.000000 0.054116
v 2.485283 0.000000 0.054116
v -3.329563 6.533520 0.794810
v 3.323719 6.533520 0.794810
v 3.323719 6.533520 0.054116
v -3.329563 6.533520 0.054116
v -2.605263 4.923571 1.095820
v 2.599419 4.923571 1.095820
v 2.081524 6.235123 1.095820
v -2.087369 6.235123 1.095820
v -0.002922 6.229075 0.843915
v -0.002922 4.307508 0.843915
v -0.002922 4.307508 0.794810
v -0.386701 6.655219 1.095820
v -0.386701 4.923571 1.095820
v -0.386701 4.307508 0.794810
v 0.380857 6.655219 1.095820
v 0.380857 4.923571 1.095820
v 0.380857 4.307508 0.794810
v 4.492522 4.090183 0.794810
v 4.492522 4.090183 0.054116
v 4.492522 6.058847 0.054116
v 4.492522 6.058847 0.794810
v -4.498366 4.090183 0.794810
v -4.498366 4.090183 0.054116
v -4.498366 6.058847 0.794810
v -4.498366 6.058847 0.054116
v -1.056536 7.237920 0.794810
v 1.050692 7.237920 0.794810
v 1.050692 7.237920 0.054117
v -1.056536 7.237920 0.054117
v 1.050692 7.237920 1.095820
v -1.056536 7.237920 1.095820
v -1.056536 7.494104 0.794810
v 1.050692 7.494104 0.794810
v 1.050692 7.494104 0.054117
v -1.056536 7.494104 0.054117
v 1.050692 7.494104 1.095820
v -1.056536 7.494104 1.095820
v -0.895993 0.188341 1.111072
v 0.890148 0.188341 1.111072
v 1.191081 3.472162 1.111072
v 0.134824 3.472162 1.111072
v -0.002922 3.472162 1.111072
v -0.140669 3.472162 1.111072
v -1.196925 3.472162 1.111072
vt 0.014091 0.347968
vt 0.014091 0.233224
vt 0.225048 0.213892
vt 0.225048 0.281747
vt 0.225048 0.290596
vt 0.225048 0.299445
vt 0.225048 0.367300
vt 0.001992 0.450442
vt 0.001992 0.130750
vt 0.278712 0.076888
vt 0.278712 0.265941
vt 0.278712 0.290596
vt 0.278712 0.315250
vt 0.278712 0.504304
vt 0.318289 0.123418
vt 0.318289 0.265941
vt 0.278712 0.290596
vt 0.318289 0.315250
vt 0.318289 0.457774
vt 0.429532 0.265941
vt 0.402545 0.156688
vt 0.421714 0.076888
vt 0.402156 0.290596
vt 0.429532 0.315250
vt 0.402545 0.424504
vt 0.421714 0.504304
vt 0.466966 0.222910
vt 0.466966 0.358282
vt 0.264751 0.001803
vt 0.391221 0.001803
vt 0.391221 0.579389
vt 0.264751 0.579389
vt 0.466966 0.358282
vt 0.483423 0.222910
vt 0.483423 0.358282
vt 0.662495 0.718752
vt 0.662495 0.583381
vt 0.710079 0.583381
vt 0.710079 0.718752
vt 0.643158 0.583381
vt 0.643158 0.718752
vt 0.696085 0.504304
vt 0.696085 0.076888
vt 0.972806 0.130750
vt 0.972806 0.450442
vt 0.553083 0.504304
vt 0.553083 0.076888
vt 0.710047 0.579389
vt 0.583577 0.579389
vt 0.507832 0.358281
vt 0.507832 0.222910
vt 0.583577 0.001803
vt 0.710047 0.001803
vt 0.491374 0.358281
vt 0.491374 0.222910
vt 0.950425 0.903072
vt 0.950425 0.583381
vt 0.998008 0.583381
vt 0.998008 0.903072
vt 0.896706 0.583381
vt 0.944290 0.583381
vt 0.944290 0.860101
vt 0.896706 0.860101
vt 0.842988 0.583381
vt 0.890571 0.583381
vt 0.890571 0.860101
vt 0.842988 0.860101
vt 0.589440 0.583381
vt 0.637023 0.583381
vt 0.637023 0.709851
vt 0.589440 0.709851
vt 0.535721 0.583381
vt 0.583304 0.583381
vt 0.583304 0.709851
vt 0.535721 0.709851
vt 0.475867 0.658466
vt 0.428284 0.658466
vt 0.428284 0.583381
vt 0.475867 0.583381
vt 0.836853 0.658466
vt 0.789270 0.658466
vt 0.789270 0.583381
vt 0.836853 0.583381
vt 0.836853 0.804489
vt 0.789270 0.804489
vt 0.769932 0.738267
vt 0.769932 0.804489
vt 0.482003 0.583381
vt 0.529586 0.583381
vt 0.529586 0.658466
vt 0.482003 0.658466
vt 0.716214 0.729403
vt 0.763797 0.729403
vt 0.763797 0.804489
vt 0.716214 0.804489
vt 0.716214 0.583381
vt 0.763797 0.583381
vt 0.405691 0.630964
vt 0.405691 0.583381
vt 0.422149 0.583381
vt 0.422149 0.630964
vt 0.405691 0.650301
vt 0.422149 0.650301
vt 0.383098 0.650301
vt 0.383098 0.602718
vt 0.399556 0.602718
vt 0.399556 0.650301
vt 0.383098 0.583381
vt 0.399556 0.583381
vn -0.078027 -0.138619 0.987267
vn 0.078027 -0.138619 0.987267
vn 0.084491 0.047481 0.995292
vn 0.000000 0.040416 0.999183
vn 0.000000 0.011662 0.999932
vn 0.000000 0.040416 0.999183
vn -0.084491 0.047481 0.995292
vn -0.120685 0.992691 0.000000
vn 0.120685 0.992691 0.000000
vn 0.114145 0.938892 -0.324735
vn -0.114145 0.938892 -0.324735
vn -0.076361 -0.037474 -0.996376
vn 0.076361 -0.037474 -0.996376
vn 0.111482 -0.150493 -0.982305
vn -0.111482 -0.150493 -0.982305
vn 0.456865 -0.477721 0.750371
vn -0.456865 -0.477721 0.750371
vn 0.396711 -0.171175 0.901842
vn -0.396711 -0.171175 0.901842
vn -0.035242 -0.008203 0.999345
vn -0.125987 -0.138412 0.982329
vn 0.115513 -0.139380 0.983479
vn 0.111421 0.099238 0.988806
vn 0.486245 -0.324508 0.811333
vn 0.486245 -0.324508 -0.811333
vn 0.495352 0.236958 -0.835750
vn 0.495352 0.236958 0.835750
vn -0.050021 0.146018 -0.988017
vn 0.050021 0.146018 -0.988017
vn -0.486245 -0.324508 -0.811333
vn -0.486245 -0.324508 0.811333
vn -0.495352 0.236958 0.835750
vn -0.495352 0.236958 -0.835750
vn 0.003934 -0.009116 0.999951
vn 0.298499 0.587293 0.752320
vn -0.298499 0.587293 0.752320
vn -0.115513 -0.139380 0.983479
vn -0.111421 0.099238 0.988806
vn 0.035242 -0.008203 0.999345
vn 0.125987 -0.138412 0.982329
vn 0.000000 -0.186510 0.982453
vn 0.000000 -0.036753 0.999324
vn 0.092188 0.758289 0.645367
vn -0.092188 0.758289 0.645367
vn -0.003934 -0.009116 0.999951
vn 0.000000 0.045441 0.998967
vn 0.111388 0.263578 -0.958185
vn 0.411607 0.858547 0.305740
vn -0.111388 0.263578 -0.958185
vn -0.411606 0.858547 0.305740
vn 0.073587 0.109535 0.991255
vn -0.073587 0.109535 0.991255
s 1
f 46/1/1 47/2/2 48/3/3 49/4/4 50/5/5 51/6/6 52/7/7
f 40/36/8 41/37/9 42/38/10 43/39/11
f 5/42/12 6/43/13 8/44/14 7/45/15
f 7/56/15 8/57/14 2/58/16 1/59/17
f 2/60/16 8/61/14 6/62/13 4/63/18
f 7/64/15 1/65/17 3/66/19 5/67/12
f 23/20/20 24/16/21 14/15/22 15/21/23
f 26/68/24 27/69/25 28/70/26 29/71/27
f 6/43/13 5/42/12 12/46/28 11/47/29
f 31/72/30 30/73/31 32/74/32 33/75/33
f 14/15/22 24/16/21 25/11/34 4/10/18
f 4/10/18 10/22/35 15/21/23 14/15/22
f 9/26/36 3/14/19 13/19/37 16/25/38
f 20/24/39 21/18/40 18/17/41 17/23/42
f 44/40/43 41/37/9 40/36/8 45/41/44
f 21/18/40 22/13/45 19/12/46 18/17/41
f 13/19/37 21/18/40 20/24/39 16/25/38
f 3/14/19 22/13/45 21/18/40 13/19/37
f 17/23/42 18/17/41 24/16/21 23/20/20
f 25/11/34 24/16/21 18/17/41 19/12/46
f 4/76/18 6/77/13 27/78/25 26/79/24
f 6/43/13 11/47/29 28/52/26 27/53/25
f 11/80/29 10/81/35 29/82/27 28/83/26
f 10/22/35 4/10/18 26/29/24 29/30/27
f 5/88/12 3/89/19 30/90/31 31/91/30
f 3/14/19 9/26/36 32/31/32 30/32/31
f 9/92/36 12/93/28 33/94/33 32/95/32
f 12/46/28 5/42/12 31/48/30 33/49/33
f 10/81/35 11/80/29 36/84/47 35/85/48
f 11/47/29 12/46/28 37/50/49 36/51/47
f 12/93/28 9/92/36 34/96/50 37/97/49
f 15/86/23 10/81/35 35/85/48 38/87/51
f 9/26/36 16/25/38 39/28/52 34/33/50
f 38/27/51 39/28/52 16/25/38 20/24/39 23/20/20 15/21/23
f 23/20/20 20/24/39 17/23/42
f 35/98/48 36/99/47 42/100/10 41/101/9
f 36/51/47 37/50/49 43/54/11 42/55/10
f 37/104/49 34/105/50 40/106/8 43/107/11
f 38/102/51 35/98/48 41/101/9 44/103/43
f 34/105/50 39/108/52 45/109/44 40/106/8
f 39/28/52 38/27/51 44/34/43 45/35/44
f 1/8/17 2/9/16 47/2/2 46/1/1
f 2/9/16 4/10/18 48/3/3 47/2/2
f 4/10/18 25/11/34 49/4/4 48/3/3
f 25/11/34 19/12/46 50/5/5 49/4/4
f 19/12/46 22/13/45 51/6/6 50/5/5
f 22/13/45 3/14/19 52/7/7 51/6/6
f 3/14/19 1/8/17 46/1/1 52/7/7
