# This file uses centimeters as units for non-parametric coordinates.

mtllib HealthPickup.mtl
g default
v -8.971681 2.490144 0.281786
v -9.547699 2.490144 0.030030
v -10.259697 2.490144 0.030030
v -10.835715 2.490144 0.281786
v -11.055735 2.495075 0.689137
v -10.835715 2.490144 1.096487
v -10.259697 2.490144 1.348243
v -9.547699 2.490144 1.348243
v -8.971681 2.490144 1.096487
v -8.751661 2.495075 0.689136
v -8.751661 3.156089 0.185624
v -9.463659 3.156089 -0.125564
v -10.343738 3.156089 -0.125564
v -11.055736 3.156089 0.185624
v -11.327694 3.156089 0.689137
v -11.055735 3.156089 1.192649
v -10.343737 3.156089 1.503837
v -9.463659 3.156089 1.503837
v -8.751661 3.156089 1.192649
v -8.479702 3.156089 0.689136
v -8.779424 3.596128 0.288394
v -9.474263 3.596128 0.040721
v -10.333133 3.596128 0.040721
v -11.027972 3.596128 0.288394
v -11.293377 3.596128 0.689137
v -11.027972 3.596128 1.089879
v -10.333133 3.596128 1.337552
v -9.474263 3.596128 1.337551
v -8.779424 3.596128 1.089879
v -8.514019 3.596128 0.689136
v -8.985170 4.118875 0.689136
v -9.552852 4.118875 0.689136
v -10.254544 4.118875 0.689136
v -10.822226 4.118875 0.689137
v -11.039061 3.906007 0.689137
v -8.768335 3.906007 0.689136
v -9.903698 1.242601 0.689136
v -9.894891 3.906007 0.689136
vt 0.720403 0.384138
vt 0.839441 0.393055
vt 0.654477 0.663513
vt 0.591077 0.383955
vt 0.471870 0.392269
vt 0.143183 0.636259
vt 0.059803 0.604985
vt 0.316040 0.379033
vt 0.254845 0.643814
vt 0.384508 0.423835
vt 0.926598 0.424954
vt 0.730963 0.264916
vt 0.868840 0.265153
vt 0.580785 0.264622
vt 0.377259 0.643936
vt 0.489553 0.635757
vt 0.572779 0.604789
vt 0.114706 0.756272
vt 0.444522 0.264083
vt 0.334608 0.264802
vt 0.979237 0.266835
vt 0.009262 0.754622
vt 0.245232 0.756709
vt 0.733983 0.182034
vt 0.873503 0.181498
vt 0.578746 0.182160
vt 0.439794 0.180647
vt 0.350974 0.165131
vt 0.962467 0.166359
vt 0.745212 0.020084
vt 0.387507 0.756635
vt 0.517554 0.756551
vt 0.866289 0.047982
vt 0.658676 0.036256
vt 0.568294 0.021180
vt 0.447930 0.048059
vt 0.403080 0.092588
vt 0.910918 0.093020
vt 0.559161 0.919105
vt 0.623184 0.754648
vt 0.110291 0.835392
vt 0.515910 0.961964
vt 0.401784 0.988913
vt 0.318086 0.974310
vt 0.230929 0.988915
vt 0.073396 0.919109
vt 0.116667 0.961953
vt 0.024083 0.849363
vt 0.242206 0.836147
vt 0.390413 0.836057
vt 0.522185 0.835541
vt 0.608431 0.849381
vn 0.181918 -0.364887 -0.913106
vn 0.579823 -0.440939 -0.685112
vn -0.000000 -1.000000 -0.000000
vn -0.181918 -0.364888 -0.913106
vn -0.579823 -0.440940 -0.685112
vn -0.857771 -0.514032 0.000000
vn -0.579823 -0.440939 0.685112
vn -0.181918 -0.364888 0.913106
vn 0.181918 -0.364888 0.913106
vn 0.579823 -0.440939 0.685112
vn 0.857771 -0.514032 -0.000000
vn 0.187893 -0.003080 -0.982185
vn 0.626506 -0.085076 -0.774759
vn -0.187894 -0.003080 -0.982185
vn -0.626507 -0.085076 -0.774759
vn -0.984459 -0.175613 0.000000
vn -0.626506 -0.085075 0.774759
vn -0.187893 -0.003080 0.982185
vn 0.187894 -0.003080 0.982185
vn 0.626506 -0.085076 0.774759
vn 0.984459 -0.175613 -0.000000
vn 0.120545 0.565340 -0.816002
vn 0.447395 0.493072 -0.746135
vn -0.119997 0.564939 -0.816361
vn -0.447395 0.493073 -0.746135
vn -0.942144 0.335209 0.000000
vn -0.447395 0.493073 0.746135
vn -0.119997 0.564938 0.816361
vn 0.120545 0.565340 0.816002
vn 0.447395 0.493073 0.746135
vn 0.942144 0.335208 -0.000000
vn 0.007043 0.999975 -0.000000
vn 0.264303 0.964440 -0.000000
vn -0.003355 0.999994 -0.000000
vn -0.005569 0.999985 0.000000
vn -0.264303 0.964440 0.000000
vn -0.742812 0.669500 -0.000000
vn 0.742812 0.669500 0.000000
s 1
g pSphere1
usemtl lambert6SG
f 2/1/1 1/2/2 37/3/3
f 3/4/4 2/1/1 37/3/3
f 4/5/5 3/4/4 37/3/3
f 5/10/6 4/5/5 37/3/3
f 6/6/7 5/7/6 37/8/3
f 7/9/8 6/6/7 37/8/3
f 8/15/9 7/9/8 37/8/3
f 9/16/10 8/15/9 37/8/3
f 10/17/11 9/16/10 37/8/3
f 1/2/2 10/11/11 37/3/3
f 12/12/12 11/13/13 1/2/2 2/1/1
f 13/14/14 12/12/12 2/1/1 3/4/4
f 14/19/15 13/14/14 3/4/4 4/5/5
f 15/20/16 14/19/15 4/5/5 5/10/6
f 16/18/17 15/22/16 5/7/6 6/6/7
f 17/23/18 16/18/17 6/6/7 7/9/8
f 18/31/19 17/23/18 7/9/8 8/15/9
f 19/32/20 18/31/19 8/15/9 9/16/10
f 20/40/21 19/32/20 9/16/10 10/17/11
f 11/13/13 20/21/21 10/11/11 1/2/2
f 11/13/13 12/12/12 22/24/22 21/25/23
f 12/12/12 13/14/14 23/26/24 22/24/22
f 13/14/14 14/19/15 24/27/25 23/26/24
f 14/19/15 15/20/16 25/28/26 24/27/25
f 15/22/16 16/18/17 26/41/27 25/48/26
f 16/18/17 17/23/18 27/49/28 26/41/27
f 17/23/18 18/31/19 28/50/29 27/49/28
f 18/31/19 19/32/20 29/51/30 28/50/29
f 19/32/20 20/40/21 30/52/31 29/51/30
f 20/21/21 11/13/13 21/25/23 30/29/31
f 21/25/23 22/24/22 32/30/32 31/33/33
f 38/34/34 23/26/24 33/35/35
f 23/26/24 24/27/25 34/36/36 33/35/35
f 24/27/25 25/28/26 35/37/37 34/36/36
f 25/48/26 26/41/27 34/47/36 35/46/37
f 26/41/27 27/49/28 33/45/35 34/47/36
f 38/44/34 28/50/29 32/43/32
f 28/50/29 29/51/30 31/42/33 32/43/32
f 29/51/30 30/52/31 36/39/38 31/42/33
f 30/29/31 21/25/23 31/33/33 36/38/38
f 27/49/28 28/50/29 38/44/34
f 27/49/28 38/44/34 33/45/35
f 22/24/22 23/26/24 38/34/34
f 22/24/22 38/34/34 32/30/32
